# xmcd
#
# Track frame offsets: 
#        150
#        24095
#        45655
#        57957
#        81612
#        103522
#        121165
#        152610
#        173922
#        208197
#        231310
#        251460
#
# Disc length: 3561 seconds
#
# Revision: 5
# Processed by: cddbd v1.5.2PL0 Copyright (c) Steve Scherf et al.
# Submitted via: ExactAudioCopy v0.95b4
#
DISCID=980de70c
DTITLE=Joe Williams - Nothin' But The Blues
DYEAR=1983
DGENRE=Jazz
TTITLE0=Who She Do
TTITLE1=Just A Dream
TTITLE2=Hold It Right There
TTITLE3=Please Send Me Someone To Love
TTITLE4=Going To Chicago Blues
TTITLE5=Ray Brown's In Town
TTITLE6=In The Evening/Rocks In My Bed
TTITLE7=Alright, OK, You Win
TTITLE8=Mean Old World/Wee Baby Blues
TTITLE9=The Comeback
TTITLE10=Tell Me Where To Scratch
TTITLE11=Sent For You Yesterday
EXTD=
EXTT0=
EXTT1=
EXTT2=
EXTT3=
EXTT4=
EXTT5=
EXTT6=
EXTT7=
EXTT8=
EXTT9=
EXTT10=
EXTT11=
PLAYORDER=
